<?xml version="1.0" encoding="UTF-8" standalone="no"?>
<!-- Created with Inkscape (http://www.inkscape.org/) -->

<svg
   xmlns:dc="http://purl.org/dc/elements/1.1/"
   xmlns:cc="http://creativecommons.org/ns#"
   xmlns:rdf="http://www.w3.org/1999/02/22-rdf-syntax-ns#"
   xmlns:svg="http://www.w3.org/2000/svg"
   xmlns="http://www.w3.org/2000/svg"
   xmlns:sodipodi="http://sodipodi.sourceforge.net/DTD/sodipodi-0.dtd"
   xmlns:inkscape="http://www.inkscape.org/namespaces/inkscape"
   width="58.046558"
   height="51.929729"
   id="svg3022"
   version="1.1"
   inkscape:version="0.91 r13725"
   sodipodi:docname="draw.svg">
  <defs
     id="defs3024" />
  <sodipodi:namedview
     id="base"
     pagecolor="#171914"
     bordercolor="#666666"
     borderopacity="1.0"
     inkscape:pageopacity="0.26666667"
     inkscape:pageshadow="2"
     inkscape:zoom="3.959798"
     inkscape:cx="13.65063"
     inkscape:cy="23.467421"
     inkscape:document-units="px"
     inkscape:current-layer="layer1"
     showgrid="false"
     fit-margin-top="0"
     fit-margin-left="0"
     fit-margin-right="0"
     fit-margin-bottom="0"
     inkscape:window-width="1600"
     inkscape:window-height="837"
     inkscape:window-x="-8"
     inkscape:window-y="-8"
     inkscape:window-maximized="1" />
  <metadata
     id="metadata3027">
    <rdf:RDF>
      <cc:Work
         rdf:about="">
        <dc:format>image/svg+xml</dc:format>
        <dc:type
           rdf:resource="http://purl.org/dc/dcmitype/StillImage" />
        <dc:title></dc:title>
      </cc:Work>
    </rdf:RDF>
  </metadata>
  <g
     inkscape:label="Layer 1"
     inkscape:groupmode="layer"
     id="layer1"
     transform="translate(-527.96404,-803.15545)">
    <path
       style="fill:#ffffff;fill-opacity:1"
       inkscape:connector-curvature="0"
       d="m 560.01264,855.08517 c -1.11053,0 -2.17682,-0.0369 -3.16052,-0.087 -8.26334,-0.41 -17.72571,-5.32259 -19.83321,-13.91924 -0.23302,-0.94977 -0.3864,-1.90692 -0.46899,-2.86702 -3.33748,-1.43647 -6.14109,-4.44065 -7.5923,-8.25008 -1.74175,-4.5837 -1.16953,-9.51251 1.5279,-13.18478 2.47915,-3.36993 6.00689,-5.07923 10.48588,-5.07923 2.36411,0 4.56305,0.36427 6.67498,0.87898 1.47923,-2.45703 3.59558,-4.76805 6.63811,-6.72807 3.21508,-2.0721 7.4227,-3.01746 11.54479,-2.59419 4.55568,0.46752 8.32971,2.51013 10.62894,5.75175 2.61778,3.69292 3.57788,9.17773 2.50422,14.31596 -0.55895,2.6753 -1.60017,5.04532 -3.04105,6.98911 1.40106,3.49972 1.89955,7.64688 1.43646,12.16864 1.91872,0.18435 3.7873,0.30971 5.31963,0.1755 1.6857,-0.14748 3.17084,1.09726 3.32127,2.78296 0.14748,1.68571 -1.09874,3.17231 -2.78444,3.32127 -2.34937,0.20795 -4.94503,-0.0192 -7.4935,-0.28464 -1.25063,2.22254 -3.4658,4.34331 -7.32832,5.54528 -2.69742,0.83916 -5.67358,1.06481 -8.37985,1.06481 l 0,0 z m -17.05173,-15.50465 c 0.004,0.0133 0.0103,0.028 0.0133,0.0413 1.32437,5.41844 8.25302,8.96241 14.18322,9.25442 4.82262,0.23892 8.25302,-0.10471 10.51243,-1.11938 -4.20468,-0.47341 -7.8917,-1.43499 -11.8604,-3.66932 -1.76535,-0.99402 -3.55429,-2.42016 -5.18248,-4.12651 -2.54404,0 -5.12348,-0.0959 -7.66605,-0.3805 l 0,0 z m 16.94112,-0.25662 c 3.54248,1.76387 6.93897,2.31545 11.35159,2.58976 0.21532,-2.07653 0.25367,-4.72676 -0.37165,-7.31062 -3.09857,1.85531 -6.54372,3.78731 -10.97994,4.72086 l 0,0 z m -8.73234,-19.3362 c -0.44392,1.72405 -0.70496,3.68112 -0.81114,5.91988 -0.11504,2.429 1.20934,5.36092 3.10299,7.89464 0.50439,-0.0118 1.00877,-0.0266 1.50873,-0.0413 5.52168,-0.16961 9.26327,-2.30808 13.14054,-4.63975 -3.40239,-3.8345 -9.9579,-7.04515 -15.05336,-8.55536 -0.64007,-0.19172 -1.27276,-0.3864 -1.88776,-0.57812 l 0,0 z m -8.31791,13.40747 c 1.0943,0.14159 2.21221,0.24482 3.33601,0.31266 -0.9129,-1.82581 -1.56329,-3.73716 -1.82876,-5.63376 -0.66514,1.71078 -1.20934,3.51004 -1.50725,5.3211 l 0,0 z m -1.88038,-15.56806 c -2.5234,0 -4.23565,0.79492 -5.54823,2.58091 -1.48365,2.01901 -1.75207,4.70759 -0.7374,7.37846 0.5265,1.3878 1.35387,2.60156 2.33757,3.51004 0.92618,-4.47014 2.88177,-8.66302 4.7651,-11.93266 0.28759,-0.49849 0.60467,-0.9837 0.94978,-1.44679 -0.58403,-0.059 -1.17395,-0.09 -1.76682,-0.09 l 0,0 z m 20.45115,-0.60467 c 3.90529,1.82138 7.92267,4.30201 10.77937,7.29587 0.32298,-0.75805 0.58255,-1.57952 0.76395,-2.44966 0.72561,-3.46874 0.13568,-7.20443 -1.50578,-9.51693 -2.82425,-3.9864 -9.88858,-4.10734 -13.85581,-1.55002 -0.17256,0.11061 -0.33921,0.22269 -0.50439,0.33625 0.48374,-0.0295 0.95863,-0.0457 1.42319,-0.0472 0.44392,-10e-4 1.04564,-0.0575 1.67981,-0.11356 1.29635,-0.11651 2.63843,-0.23744 3.87727,-0.0619 1.67243,0.24039 2.83753,1.79189 2.59861,3.46727 -0.23892,1.67538 -1.79189,2.84048 -3.4658,2.60009 -0.39967,-0.0561 -1.10168,-0.0162 -1.79042,0.0398 l 0,0 z"
       id="path19" />
  </g>
</svg>
