<?xml version="1.0" encoding="UTF-8" standalone="no"?>
<!-- Created with Inkscape (http://www.inkscape.org/) -->

<svg
   xmlns:dc="http://purl.org/dc/elements/1.1/"
   xmlns:cc="http://creativecommons.org/ns#"
   xmlns:rdf="http://www.w3.org/1999/02/22-rdf-syntax-ns#"
   xmlns:svg="http://www.w3.org/2000/svg"
   xmlns="http://www.w3.org/2000/svg"
   xmlns:xlink="http://www.w3.org/1999/xlink"
   xmlns:sodipodi="http://sodipodi.sourceforge.net/DTD/sodipodi-0.dtd"
   xmlns:inkscape="http://www.inkscape.org/namespaces/inkscape"
   width="110.745"
   height="110.74825"
   id="svg2"
   version="1.1"
   inkscape:version="0.91 r13725"
   sodipodi:docname="tick.svg">
  <sodipodi:namedview
     id="base"
     pagecolor="#000000"
     bordercolor="#666666"
     borderopacity="1.0"
     inkscape:pageopacity="0.64313725"
     inkscape:pageshadow="2"
     inkscape:zoom="1.3293607"
     inkscape:cx="-24.53776"
     inkscape:cy="-49.37384"
     inkscape:document-units="px"
     inkscape:current-layer="layer1"
     showgrid="false"
     inkscape:window-width="784"
     inkscape:window-height="822"
     inkscape:window-x="800"
     inkscape:window-y="0"
     inkscape:window-maximized="0"
     fit-margin-top="0"
     fit-margin-left="0"
     fit-margin-right="0"
     fit-margin-bottom="0"
     showguides="true"
     inkscape:guide-bbox="true" />
  <defs
     id="defs4">
    <linearGradient
       inkscape:collect="always"
       id="linearGradient9845">
      <stop
         style="stop-color:#724719;stop-opacity:1;"
         offset="0"
         id="stop9847" />
      <stop
         style="stop-color:#724719;stop-opacity:0;"
         offset="1"
         id="stop9849" />
    </linearGradient>
    <linearGradient
       inkscape:collect="always"
       xlink:href="#linearGradient9845"
       id="linearGradient9851"
       x1="385.94327"
       y1="128.09566"
       x2="523.18835"
       y2="128.09566"
       gradientUnits="userSpaceOnUse"
       gradientTransform="matrix(0.46917463,0,0,0.46917463,246.97751,34.126073)" />
  </defs>
  <metadata
     id="metadata7">
    <rdf:RDF>
      <cc:Work
         rdf:about="">
        <dc:format>image/svg+xml</dc:format>
        <dc:type
           rdf:resource="http://purl.org/dc/dcmitype/StillImage" />
        <dc:title></dc:title>
      </cc:Work>
    </rdf:RDF>
  </metadata>
  <g
     id="layer1"
     inkscape:groupmode="layer"
     inkscape:label="Layer 1"
     transform="translate(-439.0111,21.564223)">
    <path
       d="m 527.92291,-10.178797 c -9.31476,-7.113856 -20.91506,-11.385426 -33.53768,-11.385426 -12.62588,0 -24.22618,4.27157 -33.54094,11.385426 -9.91707,7.5761763 -17.1807,18.3983553 -20.21507,30.910277 -1.01906,4.203198 -1.61812,8.56593 -1.61812,13.078426 0,4.512497 0.59906,8.878484 1.61812,13.078426 5.88643,24.258738 27.68706,42.295701 53.75601,42.295701 30.58144,0 55.37087,-24.792684 55.37087,-55.374127 0,-17.955569 -8.58546,-33.86977066 -21.83319,-43.988703 z m -33.53117,43.97568 c -0.007,0.0065 -0.01,0.01954 -0.0195,0.0293 l -0.003,-0.0033 0.0228,-0.02605 z m 31.59724,-17.51604 -40.58316,40.583167 c -0.01,0.0098 -0.0228,0.01302 -0.0326,0.02279 l -22.5983,-22.59504 c -0.61534,-0.618596 -0.95719,-1.43905 -0.95719,-2.311596 0,-0.872546 0.3386,-1.693001 0.95719,-2.311597 1.23068,-1.230681 3.386,-1.233936 4.61994,0 l 17.98161,17.981615 35.99254,-35.992532 c 1.23068,-1.230681 3.386,-1.233936 4.61993,0 0.61534,0.618597 0.9572,1.43905 0.9572,2.311597 0,0.872546 -0.3386,1.693 -0.9572,2.311596 z"
       id="path151"
       inkscape:connector-curvature="0"
       style="fill:#44d95e;fill-opacity:1" />
  </g>
</svg>
