<?xml version="1.0" encoding="UTF-8" standalone="no"?>
<!-- Created with Inkscape (http://www.inkscape.org/) -->

<svg
   xmlns:dc="http://purl.org/dc/elements/1.1/"
   xmlns:cc="http://creativecommons.org/ns#"
   xmlns:rdf="http://www.w3.org/1999/02/22-rdf-syntax-ns#"
   xmlns:svg="http://www.w3.org/2000/svg"
   xmlns="http://www.w3.org/2000/svg"
   xmlns:sodipodi="http://sodipodi.sourceforge.net/DTD/sodipodi-0.dtd"
   xmlns:inkscape="http://www.inkscape.org/namespaces/inkscape"
   width="322.01102"
   height="730.96899"
   id="svg3172"
   version="1.1"
   inkscape:version="0.48.4 r9939"
   sodipodi:docname="logo_orange.svg">
  <defs
     id="defs3174" />
  <sodipodi:namedview
     id="base"
     pagecolor="#ffffff"
     bordercolor="#666666"
     borderopacity="1.0"
     inkscape:pageopacity="0.0"
     inkscape:pageshadow="2"
     inkscape:zoom="0.35"
     inkscape:cx="-60.03743"
     inkscape:cy="365.48477"
     inkscape:document-units="px"
     inkscape:current-layer="layer1"
     showgrid="false"
     fit-margin-top="0"
     fit-margin-left="0"
     fit-margin-right="0"
     fit-margin-bottom="0"
     inkscape:window-width="1600"
     inkscape:window-height="838"
     inkscape:window-x="-8"
     inkscape:window-y="-8"
     inkscape:window-maximized="1" />
  <metadata
     id="metadata3177">
    <rdf:RDF>
      <cc:Work
         rdf:about="">
        <dc:format>image/svg+xml</dc:format>
        <dc:type
           rdf:resource="http://purl.org/dc/dcmitype/StillImage" />
        <dc:title></dc:title>
      </cc:Work>
    </rdf:RDF>
  </metadata>
  <g
     inkscape:label="Layer 1"
     inkscape:groupmode="layer"
     id="layer1"
     transform="translate(-435.03743,-166.87793)">
    <polygon
       style="fill:#ff6b01;fill-opacity:1"
       points="909.711,-3.862 748.711,157.138 1070.71,157.138 "
       id="polygon261-4"
       transform="translate(-313.66957,493.70893)" />
    <polygon
       style="fill:#dc4f0a;fill-opacity:1"
       points="829.088,-84.485 748.711,157.138 909.711,-3.862 "
       id="polygon267-2"
       transform="translate(-313.66957,493.70893)" />
    <polygon
       id="polygon275-1"
       points="748.707,157.138 819.948,157.138 909.711,404.138 "
       style="fill:#dc4f0a;fill-opacity:1"
       transform="translate(-313.66957,493.70893)" />
    <g
       transform="translate(-755.75544,493.70843)"
       id="g4190">
      <polygon
         transform="translate(442.08588,4.9855158e-4)"
         id="polygon255-4"
         points="1053.282,-147.437 909.711,-326.831 990.331,-84.489 "
         style="fill:#dd4f09;fill-opacity:1" />
      <polygon
         transform="translate(442.08588,4.9855158e-4)"
         id="polygon257-0"
         points="766.14,-147.437 829.083,-84.489 909.711,-326.831 "
         style="fill:#dc4f0a;fill-opacity:1" />
      <polygon
         transform="translate(442.08588,4.9855158e-4)"
         id="polygon259-9"
         points="829.078,-84.495 909.711,-3.862 990.333,-84.484 990.331,-84.489 990.33,-84.488 909.711,-326.831 "
         style="fill:#ff6b01;fill-opacity:1" />
      <path
         id="path263-8"
         d="m 1307.3589,87.856499 c -13.189,0 -23.885,10.692 -23.885,23.881001 0,13.189 10.695,23.881 23.885,23.881 13.188,0 23.876,-10.692 23.876,-23.881 0,-13.189001 -10.688,-23.881001 -23.876,-23.881001 z m 5.965,23.881001 c -5.493,0 -9.944,-4.456 -9.944,-9.95 0,-5.495001 4.451,-9.951001 9.944,-9.951001 5.501,0 9.952,4.456 9.952,9.951001 0,5.494 -4.451,9.95 -9.952,9.95 z"
         inkscape:connector-curvature="0"
         style="fill:#ffffff" />
      <path
         id="path265-8"
         d="m 1396.9079,87.856499 c -13.189,0 -23.877,10.692 -23.877,23.881001 0,13.189 10.688,23.881 23.877,23.881 13.188,0 23.885,-10.692 23.885,-23.881 0,-13.189001 -10.697,-23.881001 -23.885,-23.881001 z m 5.972,23.881001 c -5.501,0 -9.952,-4.456 -9.952,-9.95 0,-5.495001 4.451,-9.951001 9.952,-9.951001 5.492,0 9.953,4.456 9.953,9.951001 0,5.494 -4.461,9.95 -9.953,9.95 z"
         inkscape:connector-curvature="0"
         style="fill:#ffffff" />
      <polygon
         transform="translate(442.08588,4.9855158e-4)"
         id="polygon269-4"
         points="990.333,-84.484 909.711,-3.862 1070.718,157.146 "
         style="fill:#dc4f0a;fill-opacity:1" />
      <polygon
         transform="translate(442.08588,4.9855158e-4)"
         style="fill:#dc4f0a;fill-opacity:1"
         points="832.994,157.138 905.126,157.138 909.711,404.138 "
         id="polygon273-5" />
      <polygon
         transform="translate(442.08588,4.9855158e-4)"
         id="polygon279-1"
         points="909.698,404.138 986.415,157.138 914.283,157.138 "
         style="fill:#dc4f0a;fill-opacity:1" />
      <polygon
         transform="translate(442.08588,4.9855158e-4)"
         id="polygon281-1"
         points="909.698,404.138 1070.705,157.138 999.461,157.138 "
         style="fill:#dc4f0a;fill-opacity:1" />
    </g>
  </g>
</svg>
